# xmcd CD database file
#
# Track frame offsets:
#	150
#	19490
#	45175
#	65872
#	77357
#	92512
#	109290
#	129785
#	155815
#	177300
#	206205
#	227290
#	242355
#	262710
#
# Disc length: 3741 seconds
#
# Revision: 0
# Processed by: cddbd v1.5.2PL0 Copyright (c) Steve Scherf et al.
# Submitted via: CDex 1.51
#
DISCID=a90e9b0e
DTITLE=Ben Wolfe - 13 sketches
DYEAR=1966
DGENRE=Jazz
TTITLE0=The Poet Speaks
TTITLE1=Bad Bellows
TTITLE2=Blind Seven
TTITLE3=Ursula's Dance
TTITLE4=Charlie Cool Charles
TTITLE5=Who Was Left
TTITLE6=Sweet Beautiful
TTITLE7=888 Montgomery
TTITLE8=Albert's No
TTITLE9=Bronzed Blue
TTITLE10=The Waiter
TTITLE11=Dr Jack and Mr Hylen
TTITLE12=Bonnie and Bonnie
TTITLE13=Morgan's Soundtrack
EXTD=YEAR: 1966
EXTT0=
EXTT1=
EXTT2=
EXTT3=
EXTT4=
EXTT5=
EXTT6=
EXTT7=
EXTT8=
EXTT9=
EXTT10=
EXTT11=
EXTT12=
EXTT13=
PLAYORDER=
